<?xml version="1.0" encoding="UTF-8"?>
<svg xmlns="http://www.w3.org/2000/svg" xmlns:xlink="http://www.w3.org/1999/xlink" width="1024pt" height="1024pt" viewBox="0 0 1024 1024" version="1.1">
<g id="surface1">
<path style=" stroke:none;fill-rule:nonzero;fill:rgb(62.352941%,65.882353%,85.490196%);fill-opacity:1;" d="M 810.667969 106.667969 L 298.667969 106.667969 C 251.519531 106.667969 195.839844 129.492188 192.425781 234.667969 L 192 234.667969 C 192 234.667969 192 657.492188 192 832 L 192.425781 830.933594 C 196.265625 908.375 246.613281 917.332031 269.011719 917.332031 L 789.332031 917.332031 C 832 917.332031 832 874.667969 832 874.667969 L 832 128 C 832 116.265625 822.398438 106.667969 810.667969 106.667969 Z M 810.667969 106.667969 "/>
<path style=" stroke:none;fill-rule:nonzero;fill:rgb(100%,87.843137%,69.803922%);fill-opacity:1;" d="M 768 768 L 268.949219 768 C 240.535156 768 234.667969 791.871094 234.667969 821.332031 C 234.667969 850.816406 240.535156 874.710938 268.949219 874.710938 L 768 874.667969 Z M 768 768 "/>
<path style=" stroke:none;fill-rule:nonzero;fill:rgb(87.843137%,72.54902%,56.470588%);fill-opacity:1;" d="M 268.949219 768 C 244.054688 768 236.480469 786.304688 234.964844 810.667969 L 768 810.667969 L 768 768 Z M 268.949219 768 "/>
<path style=" stroke:none;fill-rule:nonzero;fill:rgb(58.431373%,45.882353%,80.392157%);fill-opacity:1;" d="M 810.667969 768 L 768 768 L 768 917.332031 C 772.011719 917.332031 778.667969 917.332031 789.332031 917.332031 C 832 917.332031 832 874.667969 832 874.667969 L 832 746.710938 C 832 758.464844 822.464844 768 810.667969 768 Z M 810.667969 768 "/>
<path style=" stroke:none;fill-rule:nonzero;fill:rgb(36.078431%,41.960784%,75.294118%);fill-opacity:1;" d="M 667.136719 661.84375 C 597.675781 661.84375 501.246094 597.3125 421.3125 517.375 C 315.328125 411.414062 236.414062 276.414062 299.09375 213.761719 C 361.75 151.125 496.746094 230.015625 602.710938 335.980469 C 708.691406 441.941406 787.605469 576.9375 724.929688 639.59375 C 709.523438 654.996094 689.769531 661.84375 667.136719 661.84375 Z M 357.097656 234.582031 C 344.917969 234.582031 335.445312 237.71875 329.238281 243.925781 C 300.136719 273.046875 338.582031 374.335938 451.457031 487.210938 C 564.351562 600.085938 665.644531 638.550781 694.742188 609.429688 C 723.839844 580.308594 685.398438 479.019531 572.523438 366.144531 C 483.710938 277.3125 402.070312 234.582031 357.097656 234.582031 Z M 357.097656 234.582031 "/>
<path style=" stroke:none;fill-rule:nonzero;fill:rgb(36.078431%,41.960784%,75.294118%);fill-opacity:1;" d="M 356.863281 661.84375 C 334.230469 661.84375 314.476562 654.996094 299.070312 639.59375 C 236.414062 576.917969 315.308594 441.941406 421.289062 335.980469 C 527.273438 229.996094 662.273438 151.105469 724.90625 213.761719 C 787.5625 276.4375 708.671875 411.414062 602.6875 517.375 C 522.753906 597.3125 426.324219 661.84375 356.863281 661.84375 Z M 666.902344 234.582031 C 621.953125 234.582031 540.289062 277.3125 451.476562 366.144531 C 338.582031 479.019531 300.136719 580.332031 329.257812 609.429688 C 358.464844 638.570312 459.691406 600.085938 572.542969 487.210938 C 685.441406 374.335938 723.882812 273.023438 694.761719 243.925781 C 688.554688 237.71875 679.0625 234.582031 666.902344 234.582031 Z M 666.902344 234.582031 "/>
<path style=" stroke:none;fill-rule:nonzero;fill:rgb(100%,9.019608%,26.666667%);fill-opacity:1;" d="M 554.667969 426.667969 C 554.667969 450.230469 535.5625 469.332031 512 469.332031 C 488.4375 469.332031 469.332031 450.230469 469.332031 426.667969 C 469.332031 403.101562 488.4375 384 512 384 C 535.5625 384 554.667969 403.101562 554.667969 426.667969 Z M 554.667969 426.667969 "/>
<path style=" stroke:none;fill-rule:nonzero;fill:rgb(100%,80%,50.196078%);fill-opacity:1;" d="M 405.332031 213.332031 C 405.332031 236.898438 386.230469 256 362.667969 256 C 339.101562 256 320 236.898438 320 213.332031 C 320 189.769531 339.101562 170.667969 362.667969 170.667969 C 386.230469 170.667969 405.332031 189.769531 405.332031 213.332031 Z M 405.332031 213.332031 "/>
<path style=" stroke:none;fill-rule:nonzero;fill:rgb(50.196078%,87.058824%,91.764706%);fill-opacity:1;" d="M 704 640 C 704 663.5625 684.898438 682.667969 661.332031 682.667969 C 637.769531 682.667969 618.667969 663.5625 618.667969 640 C 618.667969 616.4375 637.769531 597.332031 661.332031 597.332031 C 684.898438 597.332031 704 616.4375 704 640 Z M 704 640 "/>
</g>
</svg>
